<?xml version="1.0" standalone="no"?>
<!DOCTYPE svg PUBLIC "-//W3C//DTD SVG 20010904//EN"
 "http://www.w3.org/TR/2001/REC-SVG-20010904/DTD/svg10.dtd">
<svg version="1.0" xmlns="http://www.w3.org/2000/svg"
 width="1024.000000pt" height="1024.000000pt" viewBox="0 0 1024.000000 1024.000000"
 preserveAspectRatio="xMidYMid meet">
<metadata>
Created by potrace 1.14, written by Peter Selinger 2001-2017
</metadata>
<g transform="translate(0.000000,1024.000000) scale(0.100000,-0.100000)"
fill="#000000" stroke="none">
<path d="M5215 9800 c3 -5 10 -10 16 -10 5 0 9 5 9 10 0 6 -7 10 -16 10 -8 0
-12 -4 -9 -10z"/>
<path d="M4988 9784 c-26 -26 -4 -89 39 -109 18 -9 39 -15 46 -12 21 7 38 -21
40 -65 2 -30 7 -43 17 -43 11 0 17 16 21 55 7 65 16 90 41 108 10 7 18 22 18
34 0 20 0 20 -36 -1 l-36 -22 -39 36 c-43 38 -84 46 -111 19z"/>
<path d="M6206 9768 c-9 -12 -16 -28 -16 -35 0 -23 -97 -106 -153 -131 -24
-10 -31 -10 -45 4 -15 15 -15 19 1 46 21 36 22 62 3 77 -22 19 -79 -34 -71
-67 10 -42 -64 -132 -111 -132 -31 0 -33 37 -4 68 29 31 26 60 -7 68 -20 6
-31 2 -45 -16 -10 -12 -18 -29 -18 -37 0 -18 -75 -134 -120 -186 -25 -28 -36
-35 -46 -26 -7 6 -18 8 -24 4 -7 -5 -10 7 -8 34 1 34 7 43 29 53 41 18 54 53
29 78 -21 21 -67 19 -82 -4 -4 -6 -11 -17 -16 -24 -5 -7 -29 -14 -54 -16 -24
-1 -50 -6 -56 -10 -6 -4 -22 0 -34 8 -14 9 -60 17 -120 20 l-97 6 -50 -50
c-28 -27 -51 -53 -51 -58 0 -5 -6 -14 -13 -20 -9 -8 -28 -3 -67 17 -77 37
-153 35 -241 -7 -35 -16 -90 -42 -121 -57 -32 -14 -58 -31 -58 -36 0 -5 -10
-19 -21 -30 l-22 -22 -58 62 c-32 33 -60 61 -63 61 -3 0 -25 14 -49 30 -25 17
-50 30 -56 30 -6 0 -11 4 -11 9 0 8 -11 12 -62 26 -5 2 -9 3 -10 5 -17 13
-136 18 -183 6 -71 -17 -101 -31 -134 -65 -65 -66 -111 -120 -111 -129 0 -5
-13 -15 -29 -22 -16 -6 -44 -25 -62 -41 -18 -16 -36 -29 -40 -29 -4 0 -22 18
-41 41 -18 22 -45 54 -60 72 -16 17 -28 34 -28 39 0 14 -63 40 -99 42 -25 1
-40 -4 -50 -17 -10 -14 -16 -16 -21 -7 -6 9 -10 6 -15 -9 -3 -11 -11 -21 -16
-21 -5 0 -9 -7 -9 -15 0 -9 -8 -19 -17 -22 -9 -4 -25 -15 -35 -25 -10 -10 -31
-18 -47 -18 -16 0 -34 -6 -40 -14 -13 -16 -105 -50 -96 -37 3 5 -2 12 -11 15
-16 6 -15 48 2 91 8 22 41 48 63 52 71 10 104 58 105 155 1 62 -2 72 -23 89
-30 25 -79 17 -107 -17 -12 -15 -30 -56 -39 -93 -10 -36 -27 -83 -39 -104 -20
-38 -21 -38 -37 -19 -18 23 -25 129 -11 177 6 20 4 43 -4 67 -7 21 -9 38 -3
40 14 5 -34 58 -56 61 -11 1 -25 6 -31 10 -14 8 -76 -21 -69 -33 3 -5 2 -11
-3 -14 -14 -8 -8 -118 8 -153 13 -29 65 -71 82 -65 4 1 12 -7 18 -18 6 -11 9
-20 6 -20 -3 0 4 -19 14 -42 19 -45 33 -127 22 -129 -49 -9 -148 -5 -192 7
-90 24 -93 24 -113 6 -18 -16 -20 -16 -38 7 -10 13 -19 30 -19 38 0 14 -37 72
-54 85 -24 17 -91 -69 -99 -129 -2 -12 -6 -26 -10 -29 -4 -4 -7 -13 -7 -20 0
-7 -5 -25 -12 -41 -6 -15 -10 -32 -9 -36 2 -11 -20 -78 -32 -94 -6 -9 -28 7
-75 55 -68 68 -80 77 -162 118 -115 57 -214 29 -156 -45 5 -7 11 -19 12 -27 4
-27 69 -130 106 -166 54 -55 109 -81 193 -93 11 -2 22 -4 25 -5 6 -3 35 -6 67
-8 13 -1 35 -16 50 -33 16 -18 35 -39 44 -48 38 -38 50 -86 21 -88 -47 -5 -80
-12 -107 -23 -113 -46 -218 -80 -203 -64 3 3 -19 30 -50 60 -53 52 -118 83
-179 86 -28 1 -105 -13 -123 -22 -15 -8 -59 -13 -90 -11 -16 1 -53 58 -45 71
2 4 -4 15 -14 24 -16 15 -22 15 -40 4 -12 -7 -21 -16 -21 -19 0 -4 -10 -5 -22
-1 -13 3 -19 1 -15 -6 4 -5 3 -12 -2 -14 -15 -5 -27 -141 -17 -198 16 -92 17
-95 57 -112 21 -9 39 -23 39 -30 0 -7 18 -24 41 -38 22 -14 45 -33 50 -42 11
-20 79 -58 104 -58 8 0 15 -4 15 -9 0 -12 61 -24 130 -27 30 -1 57 -3 60 -5 3
-1 11 -3 19 -3 8 -1 19 -9 25 -19 9 -15 6 -22 -19 -43 -74 -61 -215 -208 -215
-224 0 -6 -7 -13 -15 -16 -8 -4 -15 -12 -15 -19 0 -18 -39 -65 -53 -62 -6 1
-11 -2 -12 -8 -1 -16 -81 -105 -95 -105 -16 0 -9 -61 10 -80 23 -23 11 -22
200 -24 80 -2 165 -6 190 -11 50 -9 159 -11 205 -3 17 3 41 2 54 -3 20 -8 22
-14 17 -42 -3 -17 -7 -51 -9 -74 -1 -24 -6 -43 -11 -43 -5 0 -4 -6 2 -12 5 -7
11 -42 12 -78 4 -148 5 -165 11 -175 6 -10 4 -39 -10 -179 -1 -5 -4 -6 -7 -3
-4 3 -18 -3 -32 -13 -13 -11 -35 -20 -48 -20 -18 0 -24 7 -31 43 -8 38 -8 69
-2 203 1 30 -6 54 -27 89 -16 26 -36 58 -44 72 -25 42 -44 49 -74 30 -62 -41
-104 -160 -99 -282 3 -64 9 -138 13 -142 1 -2 4 -7 5 -13 1 -5 4 -12 5 -15 4
-7 5 -15 14 -57 8 -39 78 -118 103 -118 7 0 14 -6 14 -12 1 -15 5 -31 8 -38 2
-3 4 -25 6 -50 3 -40 8 -70 15 -105 9 -41 -9 -54 -87 -62 -50 -5 -97 22 -107
62 -3 13 -19 31 -35 39 -26 14 -30 14 -46 -4 -11 -12 -17 -35 -16 -67 0 -26
-7 -63 -17 -80 -13 -27 -22 -33 -49 -33 -23 0 -33 5 -33 15 0 8 -4 15 -10 15
-5 0 -10 6 -10 14 0 8 -5 16 -11 18 -5 2 -11 18 -11 36 -1 18 -5 35 -10 38 -4
3 -6 10 -3 15 4 5 0 9 -7 10 -7 0 -30 1 -50 3 -21 2 -39 -1 -39 -6 -3 -18 -2
-35 6 -75 7 -40 9 -42 42 -39 43 3 78 -29 95 -88 7 -22 15 -43 19 -46 4 -3 9
-18 12 -35 3 -16 13 -48 22 -70 24 -55 35 -104 24 -111 -5 -3 -1 -14 10 -25
10 -11 24 -39 31 -62 7 -23 16 -51 21 -62 4 -11 10 -36 13 -55 2 -19 8 -48 13
-65 13 -45 5 -72 -25 -83 -84 -29 -137 -45 -165 -47 -17 -2 -33 -8 -35 -14 -2
-6 -12 -11 -23 -11 -10 0 -19 -4 -19 -9 0 -5 -11 -12 -24 -15 -14 -3 -29 -18
-36 -36 -7 -16 -15 -30 -19 -30 -6 0 -5 -230 1 -265 2 -11 11 -31 18 -45 8
-14 13 -29 12 -33 -3 -12 29 -68 54 -92 16 -16 19 -27 13 -52 -3 -18 -12 -40
-19 -48 -7 -8 -10 -15 -6 -15 4 0 -1 -12 -11 -26 -12 -19 -16 -46 -16 -102 1
-43 -2 -83 -7 -91 -7 -13 5 -58 28 -98 7 -13 10 -23 7 -23 -3 0 -1 -9 5 -21 6
-11 13 -28 15 -37 2 -9 4 -21 6 -27 6 -20 -13 -73 -27 -79 -8 -3 -14 0 -14 7
-1 7 -10 1 -20 -12 -11 -13 -20 -20 -20 -16 0 4 -6 2 -13 -4 -8 -6 -16 -9 -18
-6 -3 2 -18 -7 -33 -20 -16 -14 -25 -25 -20 -25 5 0 3 -4 -5 -9 -8 -5 -15 -18
-16 -28 0 -10 -4 -23 -8 -30 -15 -24 -1 -130 28 -205 8 -21 11 -40 5 -43 -5
-3 -7 -14 -5 -24 2 -10 -5 -28 -15 -39 -18 -19 -42 -88 -45 -127 -1 -22 15
-77 24 -85 4 -3 17 -22 31 -42 25 -37 49 -49 103 -53 37 -2 48 -21 41 -70 -13
-81 -7 -123 23 -160 15 -19 35 -35 43 -35 8 0 24 -7 34 -15 11 -8 28 -15 38
-15 10 0 21 -7 24 -15 4 -8 17 -15 30 -15 13 0 24 -4 24 -9 0 -4 12 -7 28 -5
93 10 100 9 96 -23 -1 -16 -5 -51 -8 -80 -7 -65 -33 -118 -80 -161 -19 -17
-43 -46 -52 -64 -16 -31 -16 -32 11 -56 25 -21 26 -26 16 -49 -16 -35 1 -54
42 -46 18 3 41 12 52 20 11 7 23 13 26 13 12 0 32 -63 33 -104 1 -34 -3 -42
-29 -56 -36 -20 -42 -42 -19 -69 27 -31 24 -57 -8 -75 -20 -13 -28 -25 -28
-46 0 -37 18 -42 58 -14 35 23 67 26 67 6 0 -6 5 -16 12 -23 14 -14 5 -45 -32
-117 -36 -68 -25 -84 37 -53 25 11 47 21 51 21 3 0 11 -19 17 -42 14 -49 36
-85 62 -99 15 -8 29 -5 61 11 43 22 97 75 97 94 1 15 36 56 48 56 6 0 12 4 14
10 5 16 47 -1 54 -22 5 -16 8 -18 15 -7 6 10 9 11 9 2 0 -7 5 -13 11 -13 5 0
7 6 3 13 -15 24 41 -20 69 -55 22 -27 27 -41 21 -61 -3 -15 -10 -25 -14 -22
-8 5 -50 -30 -139 -115 -56 -54 -89 -100 -71 -100 9 0 9 -4 -1 -16 -30 -37
-11 -102 26 -88 9 4 15 0 15 -7 1 -9 4 -8 11 4 6 9 14 15 19 12 9 -6 99 32
116 49 6 7 15 22 18 34 4 12 12 22 17 22 6 0 8 4 5 9 -3 5 1 12 10 15 8 3 12
10 9 16 -7 11 10 31 42 48 16 9 23 8 33 -3 7 -8 9 -15 4 -15 -4 0 1 -10 12
-23 29 -32 64 -102 64 -125 0 -11 -6 -25 -14 -31 -9 -8 -14 -30 -14 -59 0 -26
0 -54 -1 -63 -2 -23 -52 -71 -68 -65 -20 8 -61 -14 -66 -35 -3 -11 0 -19 5
-19 6 0 3 -9 -7 -20 -11 -13 -22 -17 -29 -11 -9 7 -42 8 -66 2 -3 0 -5 -15 -5
-31 -1 -27 3 -30 30 -31 16 -1 37 -1 46 0 10 1 18 -8 21 -24 3 -14 1 -25 -5
-25 -5 0 -7 -9 -4 -19 5 -21 -24 -56 -36 -44 -4 3 -7 1 -7 -5 0 -7 -3 -11 -7
-11 -25 4 -33 -3 -29 -26 7 -38 11 -41 58 -38 82 5 135 22 139 45 3 15 6 24
29 73 13 28 23 53 22 57 -1 3 5 12 13 18 8 7 15 23 15 36 0 12 5 26 10 29 6 4
8 11 5 16 -3 5 1 6 9 3 8 -3 17 -16 20 -30 4 -13 11 -24 17 -24 6 0 7 -4 4
-10 -3 -5 -1 -10 5 -10 6 0 10 -10 8 -22 -4 -28 18 -35 27 -9 7 24 34 28 36 6
3 -36 6 -51 13 -68 13 -29 -10 -45 -62 -43 -54 3 -84 -13 -89 -46 -1 -13 -6
-34 -10 -48 -14 -55 -4 -73 50 -98 20 -9 28 -19 27 -35 -4 -42 0 -68 9 -63 5
3 11 0 14 -8 6 -16 92 -15 123 2 18 9 25 7 46 -16 31 -32 43 -68 30 -85 -13
-17 -12 -49 4 -67 23 -27 34 -66 21 -79 -8 -8 -8 -11 2 -11 7 0 10 -4 6 -10
-3 -5 0 -19 7 -30 11 -18 10 -23 -4 -31 -10 -6 -18 -19 -18 -29 0 -31 -29 -38
-100 -26 -54 10 -71 18 -100 48 -28 28 -46 37 -88 43 -35 5 -57 3 -66 -4 -19
-16 -29 -60 -17 -74 5 -7 9 -16 8 -22 0 -5 18 -19 40 -30 23 -11 44 -28 46
-38 7 -25 36 -21 64 9 25 27 52 32 125 21 50 -7 56 -12 50 -42 -2 -14 0 -26 7
-26 6 -1 17 -2 24 -3 6 -1 24 12 38 28 21 23 35 29 75 31 27 2 57 -1 67 -6 18
-10 23 -44 8 -53 -12 -8 -4 -68 11 -77 14 -9 40 0 52 19 4 7 23 20 42 28 34
14 38 21 35 61 -2 25 21 35 86 38 28 2 48 -3 60 -15 10 -9 38 -28 63 -43 25
-15 63 -43 85 -63 40 -35 73 -54 109 -61 11 -2 35 -13 54 -25 33 -20 40 -21
115 -10 45 7 84 17 87 23 4 6 10 10 14 8 12 -4 76 24 76 33 0 4 5 8 10 8 6 0
21 10 33 22 35 36 137 31 137 -7 0 -38 76 -168 134 -228 94 -98 185 -165 206
-152 6 3 10 3 10 -2 0 -4 35 -7 77 -5 43 1 107 2 142 2 35 0 61 3 58 6 -9 10
18 56 47 81 14 13 26 21 26 18 0 -2 15 2 33 9 17 8 58 12 90 11 52 -3 60 -1
87 26 16 17 33 36 37 42 10 15 37 33 83 53 19 9 43 25 53 35 23 24 47 25 47 1
0 -10 5 -23 10 -28 7 -7 5 -18 -9 -35 -19 -24 -43 -94 -35 -102 3 -2 7 -15 9
-28 3 -13 9 -25 15 -27 5 -2 10 -9 10 -15 1 -22 48 -48 74 -41 27 6 76 56 76
76 0 7 -7 31 -14 53 -13 36 -12 42 5 66 20 29 30 30 67 10 13 -7 33 -14 45
-17 12 -2 23 -8 25 -14 4 -11 79 16 104 38 10 8 15 19 12 23 -3 5 -1 9 5 9 13
0 6 34 -17 81 -17 33 -17 41 -6 56 7 10 14 26 14 36 0 9 3 17 8 17 16 0 44 68
39 98 -7 42 31 78 76 74 18 -2 37 -10 43 -18 6 -8 16 -14 22 -14 6 0 16 -9 22
-20 6 -11 17 -20 25 -20 8 0 15 -4 15 -9 0 -5 13 -14 29 -21 29 -12 64 -1 83
25 12 17 9 64 -7 94 -13 26 -13 30 5 46 11 10 42 20 69 23 41 4 53 1 73 -17
12 -12 37 -29 55 -37 28 -14 34 -14 63 1 18 9 40 18 51 20 20 4 116 95 99 95
-22 0 -8 17 23 28 34 12 99 14 232 7 107 -6 145 -16 145 -41 0 -8 4 -14 9 -14
5 0 13 -9 16 -20 9 -30 26 -24 23 8 -3 26 -1 27 50 32 43 5 56 2 69 -12 9 -10
21 -18 27 -18 7 0 19 -9 29 -20 14 -16 26 -20 58 -17 22 2 42 1 44 -3 3 -4 18
-10 34 -13 16 -4 52 -17 80 -31 28 -13 53 -21 56 -16 3 4 34 8 69 8 71 0 88 6
79 27 -3 9 -19 15 -42 16 -50 1 -106 29 -106 53 0 27 -43 37 -91 20 -47 -17
-55 -17 -89 -4 -22 8 -25 13 -16 24 20 24 -15 35 -64 20 -40 -12 -44 -11 -64
10 -21 23 -21 23 -2 47 56 71 99 109 123 109 16 0 32 9 42 25 9 14 12 25 6 25
-5 0 -10 6 -10 13 0 21 -37 50 -55 43 -9 -3 -14 -10 -11 -15 9 -14 -20 -32
-45 -27 -13 3 -29 5 -35 5 -6 1 -10 13 -11 29 0 56 -14 143 -28 176 -19 44
-14 56 38 94 23 16 53 39 66 51 29 25 61 13 61 -24 0 -75 71 -145 151 -149 48
-2 83 91 66 174 -3 14 -6 32 -6 41 -1 8 -19 43 -41 77 -22 33 -40 65 -40 69 1
13 63 79 87 91 23 13 57 6 47 -9 -3 -5 -1 -9 5 -9 6 0 25 -30 44 -67 44 -89
103 -122 155 -89 17 11 10 59 -17 113 -28 56 -26 73 9 86 17 6 30 15 30 19 0
4 10 8 23 7 12 0 49 2 82 5 33 2 64 1 70 -3 5 -4 43 -8 83 -9 55 -2 85 3 118
17 71 32 177 149 212 236 31 77 35 88 39 115 2 13 9 31 15 38 18 21 58 124 52
134 -3 5 -8 30 -10 56 -3 26 -14 66 -25 89 -10 24 -19 45 -19 49 0 3 -14 25
-30 50 -35 49 -37 47 48 46 26 0 35 5 47 29 13 24 19 27 39 19 13 -5 27 -6 30
-3 3 3 12 1 19 -6 14 -11 46 -6 48 8 5 25 4 61 -3 61 -4 0 -21 19 -38 41 -23
33 -27 45 -19 60 7 14 17 18 37 14 45 -10 165 -14 176 -7 6 3 36 6 68 7 65 0
110 28 101 63 -6 26 -30 37 -123 59 -65 15 -185 -8 -201 -39 -7 -13 -18 -18
-30 -15 -10 3 -19 1 -19 -5 0 -11 -90 -2 -103 11 -4 4 2 17 14 29 11 13 22 39
24 58 2 19 8 41 14 48 20 23 2 98 -30 127 -16 14 -29 35 -29 46 0 25 37 59 80
75 41 14 63 38 49 54 -5 6 -30 17 -54 24 -25 7 -45 16 -45 19 0 4 -12 8 -27 9
-15 1 -32 7 -37 12 -6 6 -18 10 -29 10 -10 0 -25 6 -32 14 -12 12 -11 20 8 57
12 24 34 50 48 57 44 20 103 18 137 -6 39 -28 63 -28 96 3 29 27 34 69 10 100
-12 16 -26 20 -74 19 -33 0 -60 3 -60 8 0 4 -9 8 -20 8 -33 0 -18 58 32 121
30 37 50 41 121 23 27 -6 28 -5 24 24 -3 20 0 35 9 43 13 10 12 15 -6 31 -12
11 -19 26 -16 33 3 8 1 15 -4 17 -5 2 -1 19 9 39 24 49 17 102 -18 130 -26 21
-47 16 -78 -20 -28 -32 -31 -52 -20 -120 3 -19 1 -44 -6 -55 -6 -12 -12 -23
-13 -26 -4 -18 -20 -46 -34 -60 -15 -15 -17 -15 -33 0 -9 9 -17 19 -17 23 0 3
-11 18 -26 32 -14 14 -22 30 -19 35 3 6 3 10 -2 10 -4 0 -21 27 -38 60 -16 33
-38 70 -50 82 -73 82 -70 163 7 172 13 1 28 5 33 7 6 3 36 5 67 4 53 -1 58 1
66 25 5 14 7 38 5 54 -4 30 -32 86 -43 86 -3 0 -17 11 -31 24 -29 27 -105 66
-128 66 -8 0 -11 3 -7 7 3 4 -3 12 -15 19 -13 6 -23 18 -25 25 -1 8 -3 19 -5
24 -1 6 1 30 4 55 4 25 8 62 11 83 2 20 9 44 16 51 12 15 49 13 59 -2 3 -5 16
-12 29 -16 12 -4 27 -16 32 -27 14 -24 35 -24 67 1 14 11 23 20 20 20 -3 0 -1
15 3 34 9 40 -9 62 -70 85 -19 7 -49 20 -67 27 -17 8 -36 13 -40 12 -5 -2 -20
8 -34 22 -29 27 -45 102 -52 240 -2 43 -1 45 27 48 22 3 34 -3 51 -24 24 -30
77 -40 96 -18 6 8 18 14 27 14 8 0 12 -3 9 -7 -8 -7 23 -32 40 -33 20 0 4 62
-22 85 -40 36 -60 50 -70 53 -5 1 -9 10 -9 19 1 10 2 36 2 57 1 22 5 36 8 33
4 -3 15 -2 26 4 14 8 17 14 9 23 -6 7 -8 16 -4 20 24 24 5 87 -38 126 -9 9
-22 33 -28 54 -9 34 -8 41 7 52 22 17 24 17 57 0 30 -16 75 -12 87 7 4 6 5 21
3 32 -2 11 -4 23 -4 27 -1 8 -42 23 -53 20 -5 -1 -8 5 -8 14 0 8 -16 22 -35
30 -45 18 -45 40 1 59 31 13 35 18 32 46 -2 24 -11 36 -35 49 -18 9 -30 20
-26 24 3 3 1 6 -5 6 -20 0 -43 -32 -37 -51 4 -11 2 -19 -4 -19 -6 0 -11 -11
-11 -23 0 -13 -6 -24 -12 -25 -22 -2 -43 -7 -55 -15 -7 -4 -23 3 -37 17 -28
26 -27 45 6 80 10 11 18 28 18 38 0 10 4 18 8 18 5 0 16 15 25 33 10 17 25 46
35 62 11 17 24 46 31 66 7 23 27 46 56 67 25 18 49 32 53 32 4 0 18 9 31 19
32 25 12 35 -33 16 -39 -17 -60 -19 -52 -7 2 4 7 47 10 95 3 47 8 99 12 114 6
28 88 113 151 155 28 20 59 59 33 43 -6 -3 -7 1 -4 9 3 9 10 13 15 10 5 -3 9
4 9 14 0 27 -23 34 -49 16 -16 -11 -19 -22 -15 -40 5 -18 2 -24 -10 -24 -8 0
-23 -8 -33 -19 -10 -10 -28 -22 -40 -25 -25 -8 -25 -8 -24 114 1 75 3 90 12
90 4 0 2 18 -3 40 -6 22 -16 40 -22 40 -6 0 -16 8 -23 19 -13 21 -62 18 -64
-5 -1 -8 -2 -20 -3 -26 -3 -19 10 -53 20 -52 5 0 17 -7 27 -16 15 -15 17 -33
16 -141 -3 -159 -16 -191 -53 -128 -14 23 -21 27 -31 19 -20 -16 -8 -56 32
-104 13 -15 21 -36 19 -45 -5 -16 -7 -24 -24 -106 -5 -22 -14 -50 -21 -62 -6
-13 -9 -23 -6 -23 4 0 -4 -18 -16 -40 -12 -22 -25 -38 -27 -35 -3 3 -11 0 -18
-6 -9 -7 -15 -1 -24 28 -7 21 -26 67 -43 103 -16 36 -29 68 -29 73 1 4 -2 7
-6 7 -5 0 -18 18 -30 39 -12 21 -29 41 -37 45 -23 8 -18 50 13 100 29 48 52
57 87 32 23 -15 55 -17 55 -4 0 5 5 6 10 3 15 -9 18 25 6 67 -8 29 -36 43 -73
39 -24 -3 -33 16 -32 69 1 32 -3 59 -16 118 -11 50 -14 58 -24 85 -6 15 -8 27
-5 27 3 0 -4 14 -16 30 -12 17 -28 30 -36 30 -8 0 -14 5 -14 11 0 8 -5 8 -15
-1 -11 -9 -15 -9 -15 -1 0 12 -44 61 -55 61 -3 0 -5 -7 -5 -15 0 -8 -4 -15 -9
-15 -14 0 -4 -42 11 -52 7 -4 20 -8 28 -9 10 0 11 -2 2 -6 -6 -2 -9 -9 -6 -14
3 -6 -2 -19 -12 -30 -9 -10 -14 -19 -10 -19 4 0 -4 -15 -18 -33 -15 -19 -26
-38 -26 -44 0 -5 -9 -21 -21 -34 l-21 -24 -24 30 c-54 65 -73 125 -47 150 8 9
16 21 17 28 1 6 9 26 17 42 9 17 15 54 15 85 -1 44 -5 56 -21 65 -36 18 -115
98 -115 116 0 10 -4 21 -10 24 -13 8 25 48 48 50 21 2 62 35 62 51 0 6 7 17
15 24 8 7 15 21 15 32 0 16 -3 17 -20 8 -11 -6 -20 -8 -20 -4 0 3 -7 1 -15 -6
-8 -7 -22 -9 -32 -5 -10 4 -37 9 -61 11 -25 3 -52 13 -64 24 -12 11 -25 20
-30 20 -4 0 -7 3 -6 8 1 4 -5 19 -12 35 -11 23 -11 31 1 55 23 45 35 49 140
45 66 -3 99 -1 99 6 0 6 -7 11 -15 11 -22 0 -2 45 40 87 19 19 35 41 35 49 0
8 5 14 11 14 5 0 7 5 4 10 -3 6 -3 10 2 10 4 0 9 27 11 60 4 103 -44 141 -102
81 l-29 -30 -33 26 c-19 14 -34 34 -34 44 0 10 -5 21 -10 24 -6 4 -8 10 -6 14
6 9 -30 51 -44 51 -32 0 -59 -23 -76 -64 -11 -25 -23 -46 -29 -47 -5 0 -33 -2
-61 -2 -46 -2 -124 -31 -132 -49 -2 -5 -13 -3 -24 3 -28 15 -158 12 -200 -4
-41 -16 -49 -15 -78 9 -16 14 -30 22 -30 18 0 -4 -8 3 -19 14 -10 12 -23 22
-28 22 -6 0 -18 9 -28 20 -10 11 -23 20 -30 20 -14 0 -55 42 -55 57 0 25 35
37 109 39 85 3 131 16 131 38 0 8 7 19 16 24 13 7 13 13 3 35 -13 28 -51 46
-84 40 -35 -7 -169 -6 -191 1 -16 5 -20 14 -19 39 4 77 -56 144 -160 177 -22
7 -49 18 -60 25 -23 14 -76 29 -89 26 -5 -1 -22 1 -38 5 -34 7 -34 22 -4 99 8
22 15 58 16 81 0 40 -18 94 -32 94 -5 0 -8 6 -8 14 0 8 -15 20 -34 26 -28 9
-40 8 -64 -4 -30 -16 -122 -104 -122 -117 0 -13 -48 -80 -75 -105 -15 -13 -34
-24 -44 -24 -19 0 -65 43 -56 52 3 3 8 15 10 27 3 11 7 29 9 39 2 9 6 24 8 32
1 8 11 23 22 32 10 10 20 34 21 55 1 21 3 43 4 49 1 10 26 21 69 30 26 5 52
37 52 64 0 21 -7 29 -35 39 -19 6 -36 11 -39 9 -2 -2 -16 10 -30 25 -21 22
-24 31 -15 45 6 10 22 19 36 20 13 1 38 12 56 24 29 20 33 28 31 66 0 34 5 48
27 71 14 16 24 32 20 37 -8 13 -60 10 -96 -5 -54 -21 -56 -21 -53 -4 5 26 -28
27 -46 1z m-3321 -117 c-4 -45 -14 -55 -36 -35 -24 21 -25 50 -2 62 26 15 41
4 38 -27z m-224 -424 c0 -17 78 -77 99 -77 11 0 21 -4 25 -9 5 -9 33 -8 147 4
51 6 58 5 68 -15 6 -11 10 -31 8 -43 -1 -12 1 -27 5 -33 9 -16 -31 -26 -55
-13 -12 7 -18 6 -18 -1 0 -6 -4 -9 -8 -6 -5 3 -16 -4 -26 -15 -14 -16 -16 -31
-11 -72 4 -29 11 -59 15 -66 4 -8 4 -25 0 -36 -5 -14 -4 -31 4 -46 8 -17 9
-35 2 -62 -7 -25 -7 -50 1 -80 6 -23 10 -66 9 -96 -1 -51 -3 -55 -28 -62 -16
-4 -30 -3 -34 2 -3 5 -12 5 -23 -1 -10 -5 -21 -6 -25 -2 -4 3 -11 0 -16 -8 -9
-13 -10 -13 -10 0 0 13 -1 13 -10 0 -9 -13 -10 -13 -10 0 0 13 -1 13 -10 0 -7
-11 -10 -11 -10 -2 0 7 -4 11 -9 8 -5 -3 -13 0 -19 7 -15 18 -22 66 -11 73 5
3 7 9 4 14 -3 4 7 23 22 40 l27 32 -65 56 c-109 96 -209 204 -209 226 0 12 10
32 23 46 40 45 82 143 91 214 5 35 55 56 57 23z m-761 -527 c3 -1 9 -2 13 -1
5 1 20 -5 35 -12 15 -8 53 -27 85 -43 77 -38 125 -86 122 -122 -1 -15 -3 -37
-3 -49 -2 -22 -43 -43 -72 -37 -8 2 -40 9 -70 15 -30 6 -86 26 -125 44 -51 24
-76 30 -92 24 -17 -6 -23 -3 -32 19 -6 15 -8 41 -5 57 2 17 6 37 7 46 2 9 11
29 20 43 16 24 23 26 65 22 26 -2 49 -5 52 -6z m957 -1212 c-3 -8 -6 -5 -6 6
-1 11 2 17 5 13 3 -3 4 -12 1 -19z m5192 -859 c19 -16 30 -29 26 -29 -4 0 -2
-6 4 -14 14 -17 25 -116 14 -115 -5 0 -23 32 -42 71 -18 38 -44 79 -57 91 -13
11 -24 24 -24 27 0 16 48 -3 79 -31z m-5644 -217 c-3 -3 -11 0 -18 7 -9 10 -8
11 6 5 10 -3 15 -9 12 -12z m285 -148 c0 -8 -19 -13 -24 -6 -3 5 1 9 9 9 8 0
15 -2 15 -3z m965 -444 c3 -6 -1 -7 -9 -4 -18 7 -21 14 -7 14 6 0 13 -4 16
-10z m-1120 -180 c3 -6 -1 -7 -9 -4 -18 7 -21 14 -7 14 6 0 13 -4 16 -10z
m526 -483 c-10 -9 -11 -8 -5 6 3 10 9 15 12 12 3 -3 0 -11 -7 -18z m-356 -416
c3 -5 2 -12 -3 -15 -5 -3 -9 1 -9 9 0 17 3 19 12 6z m469 -370 c4 -5 -3 -7
-14 -4 -23 6 -26 13 -6 13 8 0 17 -4 20 -9z m196 -95 c0 -2 -8 -10 -17 -17
-16 -13 -17 -12 -4 4 13 16 21 21 21 13z m4880 -75 c0 -6 -4 -13 -10 -16 -5
-3 -10 1 -10 9 0 9 5 16 10 16 6 0 10 -4 10 -9z m-5070 -115 c0 -2 -8 -10 -17
-17 -16 -13 -17 -12 -4 4 13 16 21 21 21 13z m4424 -572 c3 -8 2 -12 -4 -9 -6
3 -10 10 -10 16 0 14 7 11 14 -7z m-5529 -374 c3 -5 1 -10 -6 -10 -8 0 -8 -4
2 -16 11 -13 21 -54 13 -54 -1 0 -14 4 -28 10 -20 7 -25 16 -24 37 3 37 29 56
43 33z m737 -749 c4 -1 6 -10 5 -21 -1 -23 -27 -37 -27 -15 0 8 -9 15 -20 15
-20 0 -26 11 -14 23 4 4 16 5 28 2 12 -2 24 -4 28 -4z m26 -63 c15 -18 -20
-62 -37 -45 -14 14 -14 30 1 45 15 15 23 15 36 0z m4702 -242 c0 -2 -8 -10
-17 -17 -16 -13 -17 -12 -4 4 13 16 21 21 21 13z m-1327 -895 c15 -15 16 -34
2 -43 -15 -11 -22 -10 -39 8 -9 8 -25 16 -35 17 -11 1 -22 10 -25 20 -4 17 0
18 40 14 25 -2 50 -9 57 -16z"/>
<path d="M5450 9640 c-15 -10 -22 -60 -8 -60 5 0 12 8 15 18 4 9 11 20 17 24
17 11 -6 29 -24 18z"/>
<path d="M7918 8071 c-21 -30 -15 -44 23 -58 29 -11 30 -11 16 5 -8 9 -17 31
-19 47 l-3 30 -17 -24z"/>
<path d="M8633 6753 c-13 -2 -23 -10 -24 -16 0 -7 -3 -24 -5 -39 -5 -32 6 -35
41 -12 17 11 25 26 25 45 0 16 -3 28 -7 28 -5 -1 -18 -4 -30 -6z"/>
<path d="M8550 5722 c0 -5 3 -12 7 -16 4 -4 9 -24 10 -44 2 -33 11 -46 29 -42
4 1 10 -3 13 -9 5 -7 14 -6 29 5 27 18 27 22 1 53 -15 18 -23 21 -31 13 -9 -9
-15 -5 -24 18 -12 27 -34 42 -34 22z"/>
</g>
</svg>
